<mxfile host="app.diagrams.net" modified="2020-12-18T02:39:19.830Z" agent="5.0 (Windows NT 10.0; WOW64) AppleWebKit/537.36 (KHTML, like Gecko) Chrome/86.0.4240.193 Safari/537.36" etag="4lFjXBMx2Ik2a_yIgdyA" version="13.10.0" type="github">
  <diagram id="rp_4MqlQ7USVMExoHMae" name="第 1 页">
    <mxGraphModel dx="766" dy="596" grid="1" gridSize="10" guides="1" tooltips="1" connect="1" arrows="1" fold="1" page="1" pageScale="1" pageWidth="1654" pageHeight="2336" math="0" shadow="0">
      <root>
        <mxCell id="0" />
        <mxCell id="1" parent="0" />
        <mxCell id="xB0RSNzooxxXf9CG0fyF-1" value="semantic_Analysis&lt;br&gt;语义分析" style="rounded=0;whiteSpace=wrap;html=1;" vertex="1" parent="1">
          <mxGeometry x="440" y="20" width="120" height="40" as="geometry" />
        </mxCell>
        <mxCell id="xB0RSNzooxxXf9CG0fyF-2" value="EXT_DEF_LIST外部定义列表" style="whiteSpace=wrap;html=1;" vertex="1" parent="1">
          <mxGeometry x="100" y="170" width="190" height="40" as="geometry" />
        </mxCell>
        <mxCell id="xB0RSNzooxxXf9CG0fyF-3" value="文法描述：&lt;br&gt;EXT_DEF_LIST&lt;span style=&quot;font-size: 10.5pt&quot;&gt;→&lt;/span&gt;&lt;span lang=&quot;EN-US&quot; style=&quot;font-size: 10.5pt ; font-family: &amp;#34;times new roman&amp;#34; , serif&quot;&gt;ExtDefList ExtDef|&amp;nbsp;&lt;/span&gt;&lt;span style=&quot;font-size: 10.5pt&quot;&gt;ε&lt;/span&gt;" style="whiteSpace=wrap;html=1;" vertex="1" parent="1">
          <mxGeometry x="50" y="370" width="230" height="50" as="geometry" />
        </mxCell>
        <mxCell id="xB0RSNzooxxXf9CG0fyF-4" value="EXT_VAR_DEF外部变量定义" style="whiteSpace=wrap;html=1;" vertex="1" parent="1">
          <mxGeometry x="320" y="170" width="120" height="40" as="geometry" />
        </mxCell>
        <mxCell id="xB0RSNzooxxXf9CG0fyF-5" value="继续递归分析其子树" style="whiteSpace=wrap;html=1;" vertex="1" parent="1">
          <mxGeometry x="130" y="250" width="120" height="30" as="geometry" />
        </mxCell>
        <mxCell id="xB0RSNzooxxXf9CG0fyF-6" value="TYPE类型" style="whiteSpace=wrap;html=1;" vertex="1" parent="1">
          <mxGeometry x="490" y="180" width="80" height="30" as="geometry" />
        </mxCell>
        <mxCell id="xB0RSNzooxxXf9CG0fyF-7" value="直接返回节点类型" style="whiteSpace=wrap;html=1;" vertex="1" parent="1">
          <mxGeometry x="470" y="260" width="120" height="30" as="geometry" />
        </mxCell>
        <mxCell id="xB0RSNzooxxXf9CG0fyF-8" value="EXT_DEC_LIST外部声明列表（由变量递归定义组成）" style="whiteSpace=wrap;html=1;" vertex="1" parent="1">
          <mxGeometry x="620" y="160" width="120" height="60" as="geometry" />
        </mxCell>
      </root>
    </mxGraphModel>
  </diagram>
</mxfile>
